# xmcd CD database file
#
# Track frame offsets:
#	150
#	16275
#	33375
#	52800
#	71100
#	86100
#	107250
#	123150
#	143175
#	160275
#	178350
#	195450
#	212325
#	226275
#	243825
#	262275
#	277575
#
# Disc length: 3721 seconds
#
# Revision: 4
# Processed by: cddbd v1.5.2PL0 Copyright (c) Steve Scherf et al.
# Submitted via: CDex 1.51
#
DISCID=e40e8711
DTITLE=Carrie Underwood - QH0016
DYEAR=2008
DGENRE=Blues
TTITLE0=Carrie Underwood - All American Girl
TTITLE1=Carrie Underwood - So Small
TTITLE2=Carrie Underwood - I Told You So
TTITLE3=Carrie Underwood - Last Name
TTITLE4=Carrie Underwood - Before He Cheats
TTITLE5=Carrie Underwood - Just A Dream
TTITLE6=Carrie Underwood - More Boys I Meet, The
TTITLE7=Carrie Underwood - Wasted
TTITLE8=Carrie Underwood - Jesus, Take The Wheel
TTITLE9=Carrie Underwood - Don't Forget To Remember Me
TTITLE10=Carrie Underwood - Inside Your Heaven
TTITLE11=Carrie Underwood - Some Hearts
TTITLE12=Carrie Underwood - Angels Brought Me Here
TTITLE13=Carrie Underwood - We're Young And Beautifull
TTITLE14=Carrie Underwood - Starts With Goodbye
TTITLE15=Carrie Underwood - Independance Day
TTITLE16=Data - Data Track
EXTD=YEAR: 2008
EXTT0=
EXTT1=
EXTT2=
EXTT3=
EXTT4=
EXTT5=
EXTT6=
EXTT7=
EXTT8=
EXTT9=
EXTT10=
EXTT11=
EXTT12=
EXTT13=
EXTT14=
EXTT15=
EXTT16=
PLAYORDER=
